<svg xmlns="http://www.w3.org/2000/svg" viewBox="0 0 64 64" fill="none" role="img" aria-label="co-panel">
  <g stroke="#CC785C" stroke-width="4.5" stroke-linecap="round">
    <line x1="32" y1="7" x2="32" y2="25" transform="rotate(0 32 32)" />
    <line x1="32" y1="7" x2="32" y2="25" transform="rotate(30 32 32)" />
    <line x1="32" y1="7" x2="32" y2="25" transform="rotate(60 32 32)" />
    <line x1="32" y1="7" x2="32" y2="25" transform="rotate(90 32 32)" />
    <line x1="32" y1="7" x2="32" y2="25" transform="rotate(120 32 32)" />
    <line x1="32" y1="7" x2="32" y2="25" transform="rotate(150 32 32)" />
    <line x1="32" y1="7" x2="32" y2="25" transform="rotate(180 32 32)" />
    <line x1="32" y1="7" x2="32" y2="25" transform="rotate(210 32 32)" />
    <line x1="32" y1="7" x2="32" y2="25" transform="rotate(240 32 32)" />
    <line x1="32" y1="7" x2="32" y2="25" transform="rotate(270 32 32)" />
    <line x1="32" y1="7" x2="32" y2="25" transform="rotate(300 32 32)" />
    <line x1="32" y1="7" x2="32" y2="25" transform="rotate(330 32 32)" />
  </g>
</svg>
